<mxfile host="app.diagrams.net" modified="2021-04-17T00:39:48.619Z" agent="5.0 (Windows NT 10.0; Win64; x64) AppleWebKit/537.36 (KHTML, like Gecko) Chrome/89.0.4389.128 Safari/537.36" etag="FRRp1fPHSU4_wjEr_k9Q" version="14.6.1" type="github">
  <diagram id="gGJJXSDXoAanfUiMt0S6" name="Page-1">
    <mxGraphModel dx="1138" dy="610" grid="1" gridSize="10" guides="1" tooltips="1" connect="1" arrows="1" fold="1" page="1" pageScale="1" pageWidth="827" pageHeight="1169" math="0" shadow="0">
      <root>
        <mxCell id="0" />
        <mxCell id="1" parent="0" />
        <mxCell id="ibLSYk_XbYJw4ddTua---1" value="" style="rounded=0;whiteSpace=wrap;html=1;" vertex="1" parent="1">
          <mxGeometry x="130" y="40" width="570" height="360" as="geometry" />
        </mxCell>
        <mxCell id="ibLSYk_XbYJw4ddTua---2" value="Cliente" style="shape=umlActor;verticalLabelPosition=bottom;verticalAlign=top;html=1;outlineConnect=0;" vertex="1" parent="1">
          <mxGeometry x="40" y="190" width="40" height="80" as="geometry" />
        </mxCell>
        <mxCell id="ibLSYk_XbYJw4ddTua---3" value="petición de Creadito" style="ellipse;whiteSpace=wrap;html=1;" vertex="1" parent="1">
          <mxGeometry x="170" y="60" width="120" height="80" as="geometry" />
        </mxCell>
        <mxCell id="ibLSYk_XbYJw4ddTua---4" value="Solicitar Credito" style="text;html=1;strokeColor=none;fillColor=none;align=center;verticalAlign=middle;whiteSpace=wrap;rounded=0;fontSize=18;" vertex="1" parent="1">
          <mxGeometry x="345" y="50" width="130" height="20" as="geometry" />
        </mxCell>
        <mxCell id="ibLSYk_XbYJw4ddTua---5" value="Entrega de Datos" style="ellipse;whiteSpace=wrap;html=1;" vertex="1" parent="1">
          <mxGeometry x="180" y="180" width="120" height="80" as="geometry" />
        </mxCell>
        <mxCell id="ibLSYk_XbYJw4ddTua---7" value="Vendedor" style="shape=umlActor;verticalLabelPosition=bottom;verticalAlign=top;html=1;outlineConnect=0;" vertex="1" parent="1">
          <mxGeometry x="750" y="80" width="40" height="80" as="geometry" />
        </mxCell>
        <mxCell id="ibLSYk_XbYJw4ddTua---8" value="&lt;font style=&quot;font-size: 12px&quot;&gt;Petición de Datos&lt;/font&gt;" style="ellipse;whiteSpace=wrap;html=1;fontSize=18;" vertex="1" parent="1">
          <mxGeometry x="510" y="120" width="120" height="80" as="geometry" />
        </mxCell>
        <mxCell id="ibLSYk_XbYJw4ddTua---9" value="" style="endArrow=none;html=1;fontSize=18;" edge="1" parent="1" source="ibLSYk_XbYJw4ddTua---2" target="ibLSYk_XbYJw4ddTua---3">
          <mxGeometry width="50" height="50" relative="1" as="geometry">
            <mxPoint x="390" y="310" as="sourcePoint" />
            <mxPoint x="440" y="260" as="targetPoint" />
          </mxGeometry>
        </mxCell>
        <mxCell id="ibLSYk_XbYJw4ddTua---10" value="" style="endArrow=none;html=1;fontSize=18;" edge="1" parent="1" source="ibLSYk_XbYJw4ddTua---2" target="ibLSYk_XbYJw4ddTua---5">
          <mxGeometry width="50" height="50" relative="1" as="geometry">
            <mxPoint x="390" y="310" as="sourcePoint" />
            <mxPoint x="440" y="260" as="targetPoint" />
          </mxGeometry>
        </mxCell>
        <mxCell id="ibLSYk_XbYJw4ddTua---11" value="&lt;span style=&quot;font-size: 12px&quot;&gt;Enviar datos para estudio&lt;/span&gt;" style="ellipse;whiteSpace=wrap;html=1;fontSize=18;" vertex="1" parent="1">
          <mxGeometry x="510" y="250" width="120" height="80" as="geometry" />
        </mxCell>
        <mxCell id="ibLSYk_XbYJw4ddTua---13" value="" style="endArrow=none;html=1;fontSize=18;" edge="1" parent="1" source="ibLSYk_XbYJw4ddTua---8" target="ibLSYk_XbYJw4ddTua---7">
          <mxGeometry width="50" height="50" relative="1" as="geometry">
            <mxPoint x="600" y="230" as="sourcePoint" />
            <mxPoint x="650" y="180" as="targetPoint" />
          </mxGeometry>
        </mxCell>
        <mxCell id="ibLSYk_XbYJw4ddTua---14" value="" style="endArrow=none;html=1;fontSize=18;" edge="1" parent="1" source="ibLSYk_XbYJw4ddTua---11" target="ibLSYk_XbYJw4ddTua---7">
          <mxGeometry width="50" height="50" relative="1" as="geometry">
            <mxPoint x="390" y="310" as="sourcePoint" />
            <mxPoint x="440" y="260" as="targetPoint" />
          </mxGeometry>
        </mxCell>
        <mxCell id="ibLSYk_XbYJw4ddTua---15" value="Include" style="endArrow=none;dashed=1;html=1;dashPattern=1 3;strokeWidth=2;fontSize=12;" edge="1" parent="1" source="ibLSYk_XbYJw4ddTua---5" target="ibLSYk_XbYJw4ddTua---8">
          <mxGeometry width="50" height="50" relative="1" as="geometry">
            <mxPoint x="390" y="300" as="sourcePoint" />
            <mxPoint x="440" y="250" as="targetPoint" />
          </mxGeometry>
        </mxCell>
        <mxCell id="ibLSYk_XbYJw4ddTua---17" value="Créditos" style="shape=umlActor;verticalLabelPosition=bottom;verticalAlign=top;html=1;outlineConnect=0;" vertex="1" parent="1">
          <mxGeometry x="751" y="240" width="40" height="80" as="geometry" />
        </mxCell>
        <mxCell id="ibLSYk_XbYJw4ddTua---18" value="" style="endArrow=none;html=1;fontSize=12;" edge="1" parent="1" source="ibLSYk_XbYJw4ddTua---11" target="ibLSYk_XbYJw4ddTua---17">
          <mxGeometry width="50" height="50" relative="1" as="geometry">
            <mxPoint x="390" y="300" as="sourcePoint" />
            <mxPoint x="440" y="250" as="targetPoint" />
          </mxGeometry>
        </mxCell>
        <mxCell id="ibLSYk_XbYJw4ddTua---20" value="" style="rounded=0;whiteSpace=wrap;html=1;" vertex="1" parent="1">
          <mxGeometry x="125" y="460" width="570" height="360" as="geometry" />
        </mxCell>
        <mxCell id="ibLSYk_XbYJw4ddTua---21" value="Vendedor" style="shape=umlActor;verticalLabelPosition=bottom;verticalAlign=top;html=1;outlineConnect=0;" vertex="1" parent="1">
          <mxGeometry x="35" y="610" width="40" height="80" as="geometry" />
        </mxCell>
        <mxCell id="ibLSYk_XbYJw4ddTua---22" value="Envió de datos del credito" style="ellipse;whiteSpace=wrap;html=1;" vertex="1" parent="1">
          <mxGeometry x="165" y="540" width="120" height="80" as="geometry" />
        </mxCell>
        <mxCell id="ibLSYk_XbYJw4ddTua---23" value="Estudio de Crédito" style="text;html=1;strokeColor=none;fillColor=none;align=center;verticalAlign=middle;whiteSpace=wrap;rounded=0;fontSize=18;" vertex="1" parent="1">
          <mxGeometry x="340" y="470" width="170" height="20" as="geometry" />
        </mxCell>
        <mxCell id="ibLSYk_XbYJw4ddTua---24" value="Respuesta De Solicitud de Crédito" style="ellipse;whiteSpace=wrap;html=1;" vertex="1" parent="1">
          <mxGeometry x="165" y="670" width="120" height="80" as="geometry" />
        </mxCell>
        <mxCell id="ibLSYk_XbYJw4ddTua---25" value="Créditos" style="shape=umlActor;verticalLabelPosition=bottom;verticalAlign=top;html=1;outlineConnect=0;" vertex="1" parent="1">
          <mxGeometry x="745" y="500" width="40" height="80" as="geometry" />
        </mxCell>
        <mxCell id="ibLSYk_XbYJw4ddTua---26" value="&lt;font style=&quot;font-size: 12px&quot;&gt;Validación de Créditos&lt;/font&gt;" style="ellipse;whiteSpace=wrap;html=1;fontSize=18;" vertex="1" parent="1">
          <mxGeometry x="505" y="540" width="120" height="80" as="geometry" />
        </mxCell>
        <mxCell id="ibLSYk_XbYJw4ddTua---27" value="" style="endArrow=none;html=1;fontSize=18;" edge="1" parent="1" source="ibLSYk_XbYJw4ddTua---21" target="ibLSYk_XbYJw4ddTua---22">
          <mxGeometry width="50" height="50" relative="1" as="geometry">
            <mxPoint x="385" y="730" as="sourcePoint" />
            <mxPoint x="435" y="680" as="targetPoint" />
          </mxGeometry>
        </mxCell>
        <mxCell id="ibLSYk_XbYJw4ddTua---28" value="" style="endArrow=none;html=1;fontSize=18;" edge="1" parent="1" source="ibLSYk_XbYJw4ddTua---21" target="ibLSYk_XbYJw4ddTua---24">
          <mxGeometry width="50" height="50" relative="1" as="geometry">
            <mxPoint x="385" y="730" as="sourcePoint" />
            <mxPoint x="435" y="680" as="targetPoint" />
          </mxGeometry>
        </mxCell>
        <mxCell id="ibLSYk_XbYJw4ddTua---29" value="&lt;span style=&quot;font-size: 12px&quot;&gt;Consulta de Perfil Crediticio&lt;/span&gt;" style="ellipse;whiteSpace=wrap;html=1;fontSize=18;" vertex="1" parent="1">
          <mxGeometry x="505" y="670" width="120" height="80" as="geometry" />
        </mxCell>
        <mxCell id="ibLSYk_XbYJw4ddTua---30" value="" style="endArrow=none;html=1;fontSize=18;" edge="1" parent="1" source="ibLSYk_XbYJw4ddTua---26" target="ibLSYk_XbYJw4ddTua---25">
          <mxGeometry width="50" height="50" relative="1" as="geometry">
            <mxPoint x="595" y="650" as="sourcePoint" />
            <mxPoint x="645" y="600" as="targetPoint" />
          </mxGeometry>
        </mxCell>
        <mxCell id="ibLSYk_XbYJw4ddTua---31" value="" style="endArrow=none;html=1;fontSize=18;" edge="1" parent="1" source="ibLSYk_XbYJw4ddTua---29" target="ibLSYk_XbYJw4ddTua---25">
          <mxGeometry width="50" height="50" relative="1" as="geometry">
            <mxPoint x="385" y="730" as="sourcePoint" />
            <mxPoint x="435" y="680" as="targetPoint" />
          </mxGeometry>
        </mxCell>
        <mxCell id="ibLSYk_XbYJw4ddTua---32" value="Include" style="endArrow=none;dashed=1;html=1;dashPattern=1 3;strokeWidth=2;fontSize=12;" edge="1" parent="1" source="ibLSYk_XbYJw4ddTua---22" target="ibLSYk_XbYJw4ddTua---26">
          <mxGeometry width="50" height="50" relative="1" as="geometry">
            <mxPoint x="385" y="720" as="sourcePoint" />
            <mxPoint x="435" y="670" as="targetPoint" />
          </mxGeometry>
        </mxCell>
        <mxCell id="ibLSYk_XbYJw4ddTua---34" value="Sistema externo(data crédito)" style="shape=umlActor;verticalLabelPosition=bottom;verticalAlign=top;html=1;outlineConnect=0;" vertex="1" parent="1">
          <mxGeometry x="745" y="660" width="40" height="80" as="geometry" />
        </mxCell>
        <mxCell id="ibLSYk_XbYJw4ddTua---35" value="" style="endArrow=none;html=1;fontSize=12;" edge="1" parent="1" source="ibLSYk_XbYJw4ddTua---29" target="ibLSYk_XbYJw4ddTua---34">
          <mxGeometry width="50" height="50" relative="1" as="geometry">
            <mxPoint x="385" y="720" as="sourcePoint" />
            <mxPoint x="435" y="670" as="targetPoint" />
          </mxGeometry>
        </mxCell>
        <mxCell id="ibLSYk_XbYJw4ddTua---38" value="Respuesta Del Crédito" style="ellipse;whiteSpace=wrap;html=1;" vertex="1" parent="1">
          <mxGeometry x="200" y="300" width="120" height="80" as="geometry" />
        </mxCell>
        <mxCell id="ibLSYk_XbYJw4ddTua---39" value="Extends" style="endArrow=none;dashed=1;html=1;dashPattern=1 3;strokeWidth=2;fontSize=12;exitX=0;exitY=1;exitDx=0;exitDy=0;" edge="1" parent="1" source="ibLSYk_XbYJw4ddTua---8" target="ibLSYk_XbYJw4ddTua---38">
          <mxGeometry width="50" height="50" relative="1" as="geometry">
            <mxPoint x="526.9904985284115" y="270.00241735443615" as="sourcePoint" />
            <mxPoint x="303.00231367169613" y="230.45570241265224" as="targetPoint" />
          </mxGeometry>
        </mxCell>
        <mxCell id="ibLSYk_XbYJw4ddTua---41" value="" style="endArrow=classic;html=1;fontSize=12;" edge="1" parent="1" source="ibLSYk_XbYJw4ddTua---3" target="ibLSYk_XbYJw4ddTua---8">
          <mxGeometry width="50" height="50" relative="1" as="geometry">
            <mxPoint x="390" y="310" as="sourcePoint" />
            <mxPoint x="440" y="260" as="targetPoint" />
          </mxGeometry>
        </mxCell>
        <mxCell id="ibLSYk_XbYJw4ddTua---42" value="" style="endArrow=none;html=1;fontSize=12;" edge="1" parent="1" source="ibLSYk_XbYJw4ddTua---2" target="ibLSYk_XbYJw4ddTua---38">
          <mxGeometry width="50" height="50" relative="1" as="geometry">
            <mxPoint x="390" y="310" as="sourcePoint" />
            <mxPoint x="440" y="260" as="targetPoint" />
          </mxGeometry>
        </mxCell>
        <mxCell id="ibLSYk_XbYJw4ddTua---44" value="Extends" style="endArrow=none;dashed=1;html=1;dashPattern=1 3;strokeWidth=2;fontSize=12;" edge="1" parent="1" source="ibLSYk_XbYJw4ddTua---24">
          <mxGeometry width="50" height="50" relative="1" as="geometry">
            <mxPoint x="295" y="590" as="sourcePoint" />
            <mxPoint x="515" y="590" as="targetPoint" />
          </mxGeometry>
        </mxCell>
      </root>
    </mxGraphModel>
  </diagram>
</mxfile>
